#!OML:ASF F:\VICON\USERDATA\INSTALL\Justin_Nancy\Justin_Nancy.ASF
:FULLY-SPECIFIED
:DEGREES
431
root 0.389348 17.506 36.4867 0.804713 -2.71908 1.21957
lowerback 5.6741 1.51711 -1.45353
upperback 0.843434 1.95718 1.03259
thorax -2.39608 0.991471 1.7274
lowerneck -16.5215 -2.3709 -9.78739
upperneck 20.3312 -2.09329 6.08792
head 9.29974 -1.0659 3.4695
rclavicle -1.75427e-014 1.74931e-014
rhumerus -28.4123 -14.2674 -79.5898
rradius 30.635
rwrist 7.20068
rhand -15.6769 11.484
rfingers 7.12502
rthumb 10.5118 -18.2332
lclavicle -1.75427e-014 1.74931e-014
lhumerus -31.1544 16.1221 82.0504
lradius 22.3368
lwrist -17.2462
lhand -8.20747 30.549
lfingers 7.12502
lthumb 17.7092 419.763
rfemur -9.38836 -0.195575 20.9256
rtibia 61.288
rfoot 10.4268 -10.9162
rtoes 19.6108
lfemur -14.2438 0.341902 -24.071
ltibia 21.3402
lfoot -5.99882 0.26398
ltoes 3.56667
432
root 0.407164 17.5072 36.6352 0.801772 -2.65542 1.78712
lowerback 5.54172 1.40284 -2.02679
upperback 0.886075 1.77156 0.994374
thorax -2.28649 0.902271 2.02823
lowerneck -16.8608 -2.43722 -10.0931
upperneck 20.5183 -2.10986 6.24455
head 9.43478 -1.07874 3.5781
rclavicle -3.07619e-014 7.95139e-015
rhumerus -28.4625 -14.1943 -79.4569
rradius 30.5298
rwrist 7.87193
rhand -16.0079 11.8806
rfingers 7.12502
rthumb 10.1926 -17.8525
lclavicle -3.07619e-014 7.95139e-015
lhumerus -30.6799 15.1623 82.7553
lradius 21.9934
lwrist -13.0039
lhand -14.1059 27.4628
lfingers 7.12502
lthumb 12.027 417.097
rfemur -10.5929 -0.727061 20.1459
rtibia 62.5319
rfoot 9.4984 -11.3971
rtoes 19.6185
lfemur -13.6634 0.478679 -24.8141
ltibia 21.246
lfoot -6.44144 0.140015
ltoes 4.32775
433
root 0.430393 17.5058 36.7863 0.716358 -2.61153 2.18074
lowerback 5.37884 1.32989 -2.25801
upperback 0.971286 1.66334 0.948274
thorax -2.10731 0.847016 2.1236
lowerneck -17.5829 -3.13363 -9.99462
upperneck 20.4995 -2.90667 5.71529
head 9.62931 -1.49092 3.26558
rclavicle 7.45443e-015 4.77083e-015
rhumerus -28.5815 -14.4754 -79.2632
rradius 30.4149
rwrist 8.53233
rhand -16.1225 12.0121
rfingers 7.12502
rthumb 10.082 -17.7264
lclavicle 7.45443e-015 4.77083e-015
lhumerus -30.1682 15.0096 82.9486
lradius 22.1571
lwrist -13.1055
lhand -14.3891 27.3196
lfingers 7.12502
lthumb 11.7539 416.97
rfemur -11.6685 -1.16334 19.5426
rtibia 63.6208
rfoot 8.52678 -11.914
rtoes 19.5144
lfemur -12.9155 0.629942 -25.3892
ltibia 21.1401
lfoot -6.95854 0.110785
ltoes 4.5967
434
root 0.441648 17.5003 36.9297 0.636419 -2.6017 2.1911
lowerback 5.3847 1.27888 -2.22815
upperback 0.954968 1.59764 0.97771
thorax -2.12385 0.814508 2.14171
lowerneck -19.7743 -2.87695 -8.47872
upperneck 22.1936 -2.43017 4.16114
head 10.5633 -1.32964 2.54457
rclavicle -3.62782e-015 -5.96354e-015
rhumerus -28.8711 -14.6827 -79.1559
rradius 30.3901
rwrist 8.75534
rhand -16.0378 11.9066
rfingers 7.12502
rthumb 10.1637 -17.8279
lclavicle -3.62782e-015 -5.96354e-015
lhumerus -29.9071 14.723 83.0381
lradius 22.3854
lwrist -12.6941
lhand -15.2698 25.6385
lfingers 7.12502
lthumb 10.9045 415.335
rfemur -12.8011 -1.36258 19.5179
rtibia 64.5819
rfoot 7.721 -12.3942
rtoes 19.4514
lfemur -12.3354 0.856713 -25.4689
ltibia 21.2013
lfoot -7.40957 0.0245891
ltoes 4.44894
435
root 0.454318 17.4837 37.0666 0.506468 -2.58904 2.38611
lowerback 5.61388 1.20897 -2.40914
upperback 0.914703 1.4886 0.970999
thorax -2.29187 0.763909 2.23978
lowerneck -17.9897 -2.64577 -9.2379
upperneck 20.8387 -2.26095 5.10433
head 9.7495 -1.20081 3.01658
rclavicle -2.57426e-014 -1.47101e-014
rhumerus -29.0902 -14.7791 -79.0246
rradius 30.2621
rwrist 8.98676
rhand -15.8987 11.6832
rfingers 7.12502
rthumb 10.2979 -18.0447
lclavicle -2.57426e-014 -1.47101e-014
lhumerus -29.778 14.6434 83.0133
lradius 22.7539
lwrist -12.3956
lhand -16.0792 24.445
lfingers 7.12502
lthumb 10.1238 414.181
rfemur -13.8753 -1.54168 19.2678
rtibia 65.4264
rfoot 6.98744 -12.4288
rtoes 18.4803
lfemur -11.8708 0.806661 -25.7486
ltibia 21.5621
lfoot -8.0687 0.216297
ltoes 4.07049
436
root 0.466354 17.4667 37.1937 0.544033 -2.55658 2.57025
lowerback 5.82496 1.13157 -2.56379
upperback 0.746177 1.36979 0.957112
thorax -2.58013 0.711723 2.31635
lowerneck -17.0467 -2.64688 -9.55333
upperneck 20.4072 -2.30903 5.31132
head 9.43404 -1.22925 3.12951
rclavicle 1.08835e-014 1.59028e-015
rhumerus -29.3107 -15.5082 -78.7198
rradius 29.8528
rwrist 9.87912
rhand -15.786 12.0759
rfingers 7.12502
rthumb 10.4066 -17.6466
lclavicle 1.08835e-014 1.59028e-015
lhumerus -29.6346 14.3525 83.019
lradius 22.9906
lwrist -12.0206
lhand -16.3683 23.8247
lfingers 7.12502
lthumb 9.84482 413.575
rfemur -15.1636 -1.71856 19.0459
rtibia 66.161
rfoot 5.88105 -12.4843
rtoes 17.3048
lfemur -11.7343 0.900492 -26.0319
ltibia 22.0469
lfoot -8.72424 0.239553
ltoes 4.04237
